
<svg width="25px" height="25px" viewBox="0 0 25 25" version="1.1" xmlns="http://www.w3.org/2000/svg" xmlns:xlink="http://www.w3.org/1999/xlink">

    <title>Hamburger close</title>

    <g id="Desktop" stroke="none" stroke-width="1" fill="none" fill-rule="evenodd">
        <g id="Menu" transform="translate(-1274.000000, -44.000000)" fill="#FFFFFF">
            <path d="M1275.74363,44.2866267 C1276.13416,43.8961024 1276.76732,43.8961024 1277.15784,44.2866267 L1277.15784,44.2866267 L1286.5,53.629 L1295.84216,44.2866267 C1296.23268,43.8961024 1296.86584,43.8961024 1297.25637,44.2866267 L1298.71337,45.7436309 C1299.1039,46.1341552 1299.1039,46.7673202 1298.71337,47.1578445 L1289.371,56.5 L1298.71337,65.8421555 C1299.07386,66.2026395 1299.10159,66.7698705 1298.79656,67.1621618 L1298.71337,67.2563691 L1297.25637,68.7133733 C1296.86584,69.1038976 1296.23268,69.1038976 1295.84216,68.7133733 L1295.84216,68.7133733 L1286.5,59.371 L1277.15784,68.7133733 C1276.76732,69.1038976 1276.13416,69.1038976 1275.74363,68.7133733 L1274.28663,67.2563691 C1273.8961,66.8658448 1273.8961,66.2326798 1274.28663,65.8421555 L1283.629,56.5 L1274.28663,47.1578445 C1273.92614,46.7973605 1273.89841,46.2301295 1274.20344,45.8378382 L1274.28663,45.7436309 Z" id="Close-Sign"></path>
        </g>
    </g>
</svg>